<svg width="1200" height="900" viewBox="0 0 1200 900" fill="none" xmlns="http://www.w3.org/2000/svg">
  <rect width="1200" height="900" fill="#F8F4EE"/>
  <rect width="1200" height="300" fill="#E6F0E9"/>
  <circle cx="1010" cy="128" r="95" fill="#E6CCBA"/>
  <rect x="200" y="274" width="800" height="420" rx="42" fill="#FFFFFF"/>
  <rect x="252" y="340" width="696" height="18" rx="9" fill="#D9D3C8"/>
  <rect x="252" y="378" width="520" height="18" rx="9" fill="#D9D3C8"/>
  <rect x="252" y="416" width="598" height="18" rx="9" fill="#D9D3C8"/>
  <circle cx="600" cy="534" r="122" fill="#E5EFF1"/>
  <circle cx="600" cy="534" r="84" fill="#1F4E5F"/>
  <circle cx="600" cy="534" r="43" fill="#F8F4EE"/>
  <circle cx="600" cy="534" r="15" fill="#C67856"/>
  <g>
    <circle cx="381" cy="534" r="42" fill="#EBC9B6"/>
    <rect x="325" y="572" width="110" height="96" rx="34" fill="#C67856"/>
  </g>
  <g>
    <circle cx="819" cy="534" r="42" fill="#EBC9B6"/>
    <rect x="763" y="572" width="110" height="96" rx="34" fill="#3A7B80"/>
  </g>
  <path d="M0 757C203 698 390 704 592 747C769 785 983 814 1200 752V900H0V757Z" fill="#1F4E5F"/>
</svg>
