<svg width="1200" height="760" viewBox="0 0 1200 760" fill="none" xmlns="http://www.w3.org/2000/svg">
  <rect width="1200" height="760" fill="#F3F0EA"/>
  <rect y="520" width="1200" height="240" fill="#D7D2CB"/>
  <rect x="92" y="106" width="1016" height="520" rx="36" fill="#FFFFFF"/>
  <rect x="140" y="168" width="920" height="26" rx="13" fill="#D7D2CB"/>
  <rect x="140" y="214" width="460" height="18" rx="9" fill="#E7E2DA"/>
  <ellipse cx="335" cy="466" rx="182" ry="64" fill="#E7E2DA"/>
  <ellipse cx="607" cy="462" rx="160" ry="56" fill="#DDD6CD"/>
  <ellipse cx="872" cy="470" rx="164" ry="58" fill="#E7E2DA"/>
  <rect x="274" y="312" width="124" height="182" rx="40" fill="#353C45"/>
  <circle cx="336" cy="252" r="54" fill="#D2B5A4"/>
  <rect x="293" y="352" width="92" height="170" rx="34" fill="#353C45"/>
  <rect x="497" y="290" width="146" height="212" rx="44" fill="#6F757C"/>
  <circle cx="570" cy="230" r="58" fill="#D6B8A5"/>
  <rect x="523" y="340" width="102" height="190" rx="36" fill="#6F757C"/>
  <rect x="762" y="318" width="134" height="194" rx="42" fill="#4B525A"/>
  <circle cx="828" cy="260" r="56" fill="#D2B5A4"/>
  <rect x="785" y="358" width="96" height="176" rx="34" fill="#4B525A"/>
  <rect x="398" y="404" width="370" height="34" rx="17" fill="#C8C0B6"/>
  <rect x="384" y="438" width="398" height="36" rx="18" fill="#BFB6AB"/>
  <rect x="184" y="146" width="24" height="228" rx="12" fill="#E9E5DE"/>
  <rect x="996" y="146" width="24" height="228" rx="12" fill="#E9E5DE"/>
</svg>
