<svg width="1200" height="900" viewBox="0 0 1200 900" fill="none" xmlns="http://www.w3.org/2000/svg">
  <rect width="1200" height="900" fill="#F8F5EE"/>
  <rect width="1200" height="320" fill="#E5F0E9"/>
  <circle cx="980" cy="135" r="100" fill="#E6CCBA"/>
  <rect x="208" y="242" width="784" height="238" rx="40" fill="#FFFFFF"/>
  <rect x="250" y="286" width="700" height="28" rx="14" fill="#1F4E5F"/>
  <rect x="250" y="334" width="420" height="20" rx="10" fill="#C67856"/>
  <rect x="250" y="372" width="548" height="18" rx="9" fill="#D9D3C8"/>
  <path d="M0 754C167 699 353 670 553 708C758 747 963 794 1200 738V900H0V754Z" fill="#DDE6DF"/>
  <path d="M0 800C180 748 399 747 573 790C759 837 967 839 1200 781V900H0V800Z" fill="#1F4E5F"/>
  <g>
    <circle cx="278" cy="528" r="50" fill="#EBC9B6"/>
    <rect x="222" y="574" width="112" height="132" rx="36" fill="#C67856"/>
    <rect x="194" y="431" width="168" height="84" rx="16" fill="#FFFFFF"/>
    <rect x="216" y="459" width="124" height="14" rx="7" fill="#1F4E5F"/>
  </g>
  <g>
    <circle cx="489" cy="504" r="54" fill="#EBC9B6"/>
    <rect x="430" y="553" width="118" height="150" rx="36" fill="#3A7B80"/>
    <rect x="404" y="396" width="170" height="100" rx="16" fill="#FFFFFF"/>
    <rect x="426" y="426" width="126" height="14" rx="7" fill="#1F4E5F"/>
  </g>
  <g>
    <circle cx="717" cy="520" r="50" fill="#EBC9B6"/>
    <rect x="661" y="566" width="112" height="138" rx="34" fill="#C67856"/>
    <rect x="638" y="426" width="158" height="88" rx="16" fill="#FFFFFF"/>
    <rect x="660" y="456" width="114" height="14" rx="7" fill="#1F4E5F"/>
  </g>
  <g>
    <circle cx="935" cy="532" r="50" fill="#EBC9B6"/>
    <rect x="879" y="578" width="112" height="132" rx="36" fill="#3A7B80"/>
    <rect x="852" y="428" width="166" height="94" rx="16" fill="#FFFFFF"/>
    <rect x="874" y="460" width="122" height="14" rx="7" fill="#1F4E5F"/>
  </g>
</svg>
