<svg width="1200" height="900" viewBox="0 0 1200 900" fill="none" xmlns="http://www.w3.org/2000/svg">
  <rect width="1200" height="900" fill="#F8F5EE"/>
  <rect width="1200" height="280" fill="#E8F2EB"/>
  <circle cx="960" cy="140" r="96" fill="#E6CCBA"/>
  <rect x="135" y="402" width="930" height="238" rx="36" fill="#FFFFFF"/>
  <rect x="135" y="402" width="930" height="86" rx="36" fill="#1F4E5F"/>
  <rect x="182" y="523" width="200" height="82" rx="20" fill="#F6F3EE"/>
  <rect x="412" y="523" width="200" height="82" rx="20" fill="#F6F3EE"/>
  <rect x="642" y="523" width="200" height="82" rx="20" fill="#F6F3EE"/>
  <rect x="872" y="523" width="146" height="82" rx="20" fill="#F6F3EE"/>
  <path d="M0 746C146 690 324 646 534 671C748 697 891 773 1200 693V900H0V746Z" fill="#DCE6DE"/>
  <path d="M0 792C197 742 356 748 535 788C697 825 885 840 1200 752V900H0V792Z" fill="#2D6772"/>
  <g>
    <rect x="208" y="311" width="136" height="212" rx="40" fill="#C67856"/>
    <circle cx="276" cy="256" r="56" fill="#EBC9B6"/>
    <rect x="227" y="382" width="98" height="160" rx="32" fill="#C67856"/>
    <rect x="170" y="392" width="64" height="112" rx="28" fill="#EBC9B6"/>
    <rect x="322" y="392" width="64" height="112" rx="28" fill="#EBC9B6"/>
  </g>
  <g>
    <rect x="842" y="331" width="134" height="196" rx="38" fill="#3A7B80"/>
    <circle cx="909" cy="278" r="54" fill="#EBC9B6"/>
    <rect x="862" y="394" width="96" height="148" rx="30" fill="#3A7B80"/>
    <rect x="805" y="398" width="62" height="116" rx="27" fill="#EBC9B6"/>
    <rect x="947" y="398" width="62" height="116" rx="27" fill="#EBC9B6"/>
  </g>
  <rect x="452" y="335" width="300" height="134" rx="24" fill="#FFFFFF"/>
  <rect x="489" y="365" width="228" height="24" rx="12" fill="#1F4E5F"/>
  <rect x="489" y="405" width="160" height="18" rx="9" fill="#C67856"/>
  <rect x="489" y="436" width="190" height="18" rx="9" fill="#D4CEC2"/>
</svg>
