<svg width="1200" height="900" viewBox="0 0 1200 900" fill="none" xmlns="http://www.w3.org/2000/svg">
  <rect width="1200" height="900" fill="#F6F3EE"/>
  <circle cx="600" cy="450" r="260" fill="#E5EFF1"/>
  <circle cx="600" cy="450" r="160" fill="#FFFFFF"/>
  <circle cx="600" cy="450" r="60" fill="#C67856"/>
  <circle cx="600" cy="160" r="54" fill="#EBC9B6"/>
  <rect x="542" y="204" width="116" height="118" rx="36" fill="#1F4E5F"/>
  <circle cx="858" cy="286" r="54" fill="#EBC9B6"/>
  <rect x="800" y="332" width="116" height="118" rx="36" fill="#C67856"/>
  <circle cx="949" cy="563" r="54" fill="#EBC9B6"/>
  <rect x="891" y="609" width="116" height="118" rx="36" fill="#1F4E5F"/>
  <circle cx="251" cy="563" r="54" fill="#EBC9B6"/>
  <rect x="193" y="609" width="116" height="118" rx="36" fill="#C67856"/>
  <circle cx="342" cy="286" r="54" fill="#EBC9B6"/>
  <rect x="284" y="332" width="116" height="118" rx="36" fill="#1F4E5F"/>
  <path d="M0 770C186 718 357 717 538 755C739 796 934 812 1200 752V900H0V770Z" fill="#2D6772"/>
</svg>
